<?xml version="1.0" encoding="UTF-8"?><svg id="Capa_2" xmlns="http://www.w3.org/2000/svg" viewBox="0 0 39.74 39.73"><defs><style>.cls-1{fill:#484b47;}</style></defs><g id="Texto"><path class="cls-1" d="M33.92,5.82C30.33,2.22,25.36,0,19.87,0S9.42,2.22,5.82,5.82,0,14.38,0,19.87s2.23,10.45,5.82,14.04,8.57,5.82,14.05,5.82c10.98,0,19.87-8.89,19.87-19.86,0-5.49-2.22-10.46-5.82-14.05ZM31.5,25.22c0,1.69-1.37,3.06-3.07,3.06H11.31c-1.69,0-3.06-1.37-3.06-3.06v-10.71c0-1.69,1.37-3.06,3.06-3.06h17.12c1.7,0,3.07,1.37,3.07,3.06v10.71ZM22.62,19.13l-4.76-2.38c-.55-.28-1.19.12-1.19.74v4.76c0,.61.64,1.01,1.19.73l4.76-2.38c.61-.3.61-1.17,0-1.47Z"/></g></svg>