<?xml version="1.0" encoding="UTF-8"?><svg id="Capa_2" xmlns="http://www.w3.org/2000/svg" viewBox="0 0 39.73 39.74"><defs><style>.cls-1{fill:#484b47;}</style></defs><g id="Texto"><path class="cls-1" d="M20.19,9.6c-5.22,0-9.46,4.25-9.46,9.46,0,1.9.56,3.67,1.52,5.15l-1.02,3.81,3.82-1.02c.12.09.25.16.38.24,1.4.82,3.02,1.29,4.76,1.29,5.22,0,9.46-4.25,9.46-9.47s-4.24-9.46-9.46-9.46ZM25.8,23.23c-.16.25-.34.48-.61.75-.61.61-1.45.92-2.3.83-1.53-.16-3.71-1-5.58-2.87s-2.71-4.04-2.86-5.57c-.09-.86.21-1.7.82-2.3.28-.28.51-.45.76-.62.45-.31,1.08-.1,1.25.41l.63,1.89c.17.51.09.84-.13,1.06l-.5.5c-.25.25-.29.63-.1.93.28.43.8,1.12,1.75,2.08.96.96,1.65,1.48,2.09,1.75.29.19.68.15.93-.09l.5-.5c.22-.23.54-.31,1.06-.13l1.88.62c.52.18.73.8.41,1.26ZM20.19,9.6c-5.22,0-9.46,4.25-9.46,9.46,0,1.9.56,3.67,1.52,5.15l-1.02,3.81,3.82-1.02c.12.09.25.16.38.24,1.4.82,3.02,1.29,4.76,1.29,5.22,0,9.46-4.25,9.46-9.47s-4.24-9.46-9.46-9.46ZM25.8,23.23c-.16.25-.34.48-.61.75-.61.61-1.45.92-2.3.83-1.53-.16-3.71-1-5.58-2.87s-2.71-4.04-2.86-5.57c-.09-.86.21-1.7.82-2.3.28-.28.51-.45.76-.62.45-.31,1.08-.1,1.25.41l.63,1.89c.17.51.09.84-.13,1.06l-.5.5c-.25.25-.29.63-.1.93.28.43.8,1.12,1.75,2.08.96.96,1.65,1.48,2.09,1.75.29.19.68.15.93-.09l.5-.5c.22-.23.54-.31,1.06-.13l1.88.62c.52.18.73.8.41,1.26ZM33.91,5.82C30.32,2.22,25.35,0,19.86,0S9.41,2.22,5.82,5.82C2.22,9.42,0,14.38,0,19.87s2.22,10.45,5.82,14.05c3.59,3.6,8.56,5.82,14.04,5.82,10.98,0,19.87-8.9,19.87-19.87,0-5.49-2.22-10.45-5.82-14.05ZM20.76,30.98c-.19.01-.38.01-.57.01-1.98,0-3.85-.47-5.5-1.34l-5.97,1.34c-.27.05-.51-.19-.45-.46l1.33-5.97c-.95-1.81-1.44-3.9-1.33-6.11.31-6.14,5.38-11.11,11.52-11.31,6.93-.23,12.59,5.46,12.32,12.4-.23,6.13-5.22,11.16-11.35,11.44ZM20.19,9.6c-5.22,0-9.46,4.25-9.46,9.46,0,1.9.56,3.67,1.52,5.15l-1.02,3.81,3.82-1.02c.12.09.25.16.38.24,1.4.82,3.02,1.29,4.76,1.29,5.22,0,9.46-4.25,9.46-9.47s-4.24-9.46-9.46-9.46ZM25.8,23.23c-.16.25-.34.48-.61.75-.61.61-1.45.92-2.3.83-1.53-.16-3.71-1-5.58-2.87s-2.71-4.04-2.86-5.57c-.09-.86.21-1.7.82-2.3.28-.28.51-.45.76-.62.45-.31,1.08-.1,1.25.41l.63,1.89c.17.51.09.84-.13,1.06l-.5.5c-.25.25-.29.63-.1.93.28.43.8,1.12,1.75,2.08.96.96,1.65,1.48,2.09,1.75.29.19.68.15.93-.09l.5-.5c.22-.23.54-.31,1.06-.13l1.88.62c.52.18.73.8.41,1.26Z"/></g></svg>