<?xml version="1.0" encoding="UTF-8"?><svg id="Capa_2" xmlns="http://www.w3.org/2000/svg" viewBox="0 0 39.73 39.74"><defs><style>.cls-1{fill:#484b47;}</style></defs><g id="Texto"><path class="cls-1" d="M33.91,5.82C30.32,2.22,25.35,0,19.86,0S9.41,2.22,5.82,5.82C2.22,9.41,0,14.38,0,19.87s2.22,10.45,5.82,14.05,8.56,5.82,14.04,5.82c10.98,0,19.87-8.9,19.87-19.87,0-5.49-2.22-10.46-5.82-14.05ZM23.15,30.29l-5.15-7.19-6.72,7.19h-3.05l8.45-9.04-8.45-11.8h8.35l4.83,6.74,6.31-6.74h3.05l-8.04,8.59,8.77,12.25h-8.35ZM12.53,11.66l11.76,16.42h2.91L15.44,11.66h-2.91Z"/></g></svg>