<?xml version="1.0" encoding="UTF-8"?><svg id="Capa_2" xmlns="http://www.w3.org/2000/svg" viewBox="0 0 94.15 112.04"><defs><style>.cls-1{fill:#484b47;}</style></defs><g id="Texto"><path class="cls-1" d="M83.49,106.72c0-7.81-4.37-15.37-11.5-21.16-7.12-5.79-16.4-9.29-24.92-9.29-8.52,0-17.79,3.5-24.91,9.29-7.13,5.79-11.5,13.35-11.5,21.16,0,2.94-2.39,5.33-5.33,5.33S0,109.66,0,106.72c0-11.93,6.63-22.27,15.44-29.43,8.82-7.17,20.42-11.68,31.64-11.68,11.22,0,22.82,4.52,31.64,11.68,8.81,7.16,15.44,17.5,15.44,29.43,0,2.94-2.39,5.33-5.33,5.33-2.94,0-5.33-2.39-5.33-5.33Z"/><path class="cls-1" d="M65.6,29.19c0-10.23-8.29-18.53-18.52-18.53-10.23,0-18.53,8.3-18.53,18.53,0,10.23,8.3,18.52,18.53,18.52,10.23,0,18.52-8.29,18.52-18.52ZM76.26,29.19c0,16.12-13.06,29.18-29.18,29.18-16.12,0-29.18-13.06-29.19-29.18C17.89,13.07,30.96,0,47.08,0c16.12,0,29.18,13.07,29.18,29.19Z"/></g></svg>