<?xml version="1.0" encoding="UTF-8"?><svg id="Capa_2" xmlns="http://www.w3.org/2000/svg" viewBox="0 0 96.05 117.4"><defs><style>.cls-1{fill:#484b47;}</style></defs><g id="Texto"><path class="cls-1" d="M85.4,53.39c0-1.42-.56-2.78-1.57-3.78-1-1-2.36-1.57-3.78-1.57H16c-1.42,0-2.78.56-3.78,1.57-1,1-1.57,2.36-1.57,3.78v37.34c0,4.25,1.69,8.32,4.69,11.32,3,3,7.08,4.69,11.33,4.69h42.7c4.25,0,8.32-1.69,11.33-4.69,3-3,4.69-7.08,4.69-11.32v-37.34ZM96.05,90.73c0,7.07-2.81,13.86-7.82,18.86-5,5-11.79,7.81-18.86,7.81H26.68c-7.07,0-13.86-2.81-18.86-7.81-5-5-7.82-11.79-7.82-18.86v-37.34c0-4.24,1.69-8.32,4.69-11.32,3-3,7.07-4.68,11.31-4.68h64.05c4.24,0,8.32,1.68,11.32,4.68,3,3,4.69,7.07,4.69,11.32v37.34Z"/><path class="cls-1" d="M69.38,42.72v-10.68c0-2.8-.54-5.59-1.61-8.18-1.07-2.59-2.64-4.95-4.62-6.94-1.98-1.99-4.34-3.57-6.94-4.64-2.59-1.08-5.38-1.63-8.18-1.63-2.81,0-5.6.55-8.19,1.63-2.59,1.08-4.95,2.65-6.94,4.64-1.98,1.99-3.55,4.34-4.62,6.94-1.07,2.59-1.62,5.37-1.61,8.18v10.68c0,2.94-2.39,5.33-5.33,5.33s-5.33-2.39-5.33-5.33v-10.67c0-4.2.82-8.37,2.42-12.25,1.6-3.89,3.96-7.42,6.93-10.4,2.97-2.98,6.51-5.34,10.4-6.96,3.89-1.61,8.06-2.45,12.27-2.45,4.21,0,8.38.83,12.27,2.45,3.89,1.61,7.42,3.98,10.4,6.96,2.97,2.98,5.32,6.51,6.93,10.4,1.6,3.89,2.43,8.05,2.42,12.25v10.67c0,2.94-2.39,5.33-5.33,5.33-2.94,0-5.33-2.39-5.33-5.33Z"/></g></svg>