<?xml version="1.0" encoding="UTF-8"?><svg id="Capa_2" xmlns="http://www.w3.org/2000/svg" viewBox="0 0 39.74 39.74"><defs><style>.cls-1{fill:#484b47;}</style></defs><g id="Texto"><path class="cls-1" d="M33.92,5.82C30.32,2.23,25.35,0,19.87,0S9.42,2.23,5.82,5.82C2.23,9.42,0,14.39,0,19.87s2.23,10.45,5.82,14.05c3.6,3.59,8.57,5.82,14.05,5.82,10.97,0,19.87-8.9,19.87-19.87,0-5.48-2.23-10.45-5.82-14.05ZM25.76,10.68c0,.31-.25.56-.55.56h-2.76c-1.22,0-2.21.99-2.21,2.21v3.88h4.64c.53,0,.94.47.88,1l-.33,2.66c-.06.44-.44.78-.88.78h-4.31v11.11c-.45.04-.91.06-1.38.06-1.03,0-2.05-.1-3.03-.3v-10.87h-3.31c-.31,0-.55-.25-.55-.56v-3.32c0-.31.24-.56.55-.56h3.31v-4.99c0-3.06,2.47-5.54,5.52-5.54h3.86c.3,0,.55.25.55.56v3.32Z"/></g></svg>