<?xml version="1.0" encoding="UTF-8"?><svg id="Capa_2" xmlns="http://www.w3.org/2000/svg" viewBox="0 0 39.73 39.74"><defs><style>.cls-1{fill:#484b47;}</style></defs><g id="Texto"><path class="cls-1" d="M19.87,16.28c-1.98,0-3.59,1.61-3.59,3.59s1.61,3.59,3.59,3.59,3.6-1.61,3.6-3.59-1.62-3.59-3.6-3.59ZM19.87,16.28c-1.98,0-3.59,1.61-3.59,3.59s1.61,3.59,3.59,3.59,3.6-1.61,3.6-3.59-1.62-3.59-3.6-3.59ZM24.89,11.25h-10.06c-1.98,0-3.59,1.61-3.59,3.59v10.06c0,1.99,1.61,3.6,3.59,3.6h10.06c1.99,0,3.6-1.61,3.6-3.6v-10.06c0-1.98-1.61-3.59-3.6-3.59ZM19.87,25.26c-2.97,0-5.39-2.41-5.39-5.39s2.42-5.39,5.39-5.39,5.39,2.42,5.39,5.39-2.41,5.39-5.39,5.39ZM25.62,15.2c-.59,0-1.07-.48-1.07-1.08s.48-1.08,1.07-1.08,1.08.49,1.08,1.08-.48,1.08-1.08,1.08ZM19.87,16.28c-1.98,0-3.59,1.61-3.59,3.59s1.61,3.59,3.59,3.59,3.6-1.61,3.6-3.59-1.62-3.59-3.6-3.59ZM24.89,11.25h-10.06c-1.98,0-3.59,1.61-3.59,3.59v10.06c0,1.99,1.61,3.6,3.59,3.6h10.06c1.99,0,3.6-1.61,3.6-3.6v-10.06c0-1.98-1.61-3.59-3.6-3.59ZM19.87,25.26c-2.97,0-5.39-2.41-5.39-5.39s2.42-5.39,5.39-5.39,5.39,2.42,5.39,5.39-2.41,5.39-5.39,5.39ZM25.62,15.2c-.59,0-1.07-.48-1.07-1.08s.48-1.08,1.07-1.08,1.08.49,1.08,1.08-.48,1.08-1.08,1.08ZM19.87,16.28c-1.98,0-3.59,1.61-3.59,3.59s1.61,3.59,3.59,3.59,3.6-1.61,3.6-3.59-1.62-3.59-3.6-3.59ZM33.91,5.82C30.32,2.22,25.35,0,19.86,0S9.41,2.22,5.82,5.82C2.22,9.42,0,14.38,0,19.87s2.22,10.45,5.82,14.05c3.59,3.6,8.55,5.82,14.04,5.82,10.98,0,19.87-8.9,19.87-19.87,0-5.49-2.22-10.45-5.82-14.05ZM30.28,25.26c0,2.78-2.25,5.03-5.03,5.03h-10.78c-2.77,0-5.03-2.25-5.03-5.03v-10.78c0-2.78,2.26-5.03,5.03-5.03h10.78c2.78,0,5.03,2.25,5.03,5.03v10.78ZM24.89,11.25h-10.06c-1.98,0-3.59,1.61-3.59,3.59v10.06c0,1.99,1.61,3.6,3.59,3.6h10.06c1.99,0,3.6-1.61,3.6-3.6v-10.06c0-1.98-1.61-3.59-3.6-3.59ZM19.87,25.26c-2.97,0-5.39-2.41-5.39-5.39s2.42-5.39,5.39-5.39,5.39,2.42,5.39,5.39-2.41,5.39-5.39,5.39ZM25.62,15.2c-.59,0-1.07-.48-1.07-1.08s.48-1.08,1.07-1.08,1.08.49,1.08,1.08-.48,1.08-1.08,1.08ZM19.87,16.28c-1.98,0-3.59,1.61-3.59,3.59s1.61,3.59,3.59,3.59,3.6-1.61,3.6-3.59-1.62-3.59-3.6-3.59ZM19.87,16.28c-1.98,0-3.59,1.61-3.59,3.59s1.61,3.59,3.59,3.59,3.6-1.61,3.6-3.59-1.62-3.59-3.6-3.59ZM19.87,16.28c-1.98,0-3.59,1.61-3.59,3.59s1.61,3.59,3.59,3.59,3.6-1.61,3.6-3.59-1.62-3.59-3.6-3.59ZM24.89,11.25h-10.06c-1.98,0-3.59,1.61-3.59,3.59v10.06c0,1.99,1.61,3.6,3.59,3.6h10.06c1.99,0,3.6-1.61,3.6-3.6v-10.06c0-1.98-1.61-3.59-3.6-3.59ZM19.87,25.26c-2.97,0-5.39-2.41-5.39-5.39s2.42-5.39,5.39-5.39,5.39,2.42,5.39,5.39-2.41,5.39-5.39,5.39ZM25.62,15.2c-.59,0-1.07-.48-1.07-1.08s.48-1.08,1.07-1.08,1.08.49,1.08,1.08-.48,1.08-1.08,1.08ZM19.87,16.28c-1.98,0-3.59,1.61-3.59,3.59s1.61,3.59,3.59,3.59,3.6-1.61,3.6-3.59-1.62-3.59-3.6-3.59ZM19.87,16.28c-1.98,0-3.59,1.61-3.59,3.59s1.61,3.59,3.59,3.59,3.6-1.61,3.6-3.59-1.62-3.59-3.6-3.59ZM19.87,16.28c-1.98,0-3.59,1.61-3.59,3.59s1.61,3.59,3.59,3.59,3.6-1.61,3.6-3.59-1.62-3.59-3.6-3.59ZM24.89,11.25h-10.06c-1.98,0-3.59,1.61-3.59,3.59v10.06c0,1.99,1.61,3.6,3.59,3.6h10.06c1.99,0,3.6-1.61,3.6-3.6v-10.06c0-1.98-1.61-3.59-3.6-3.59ZM19.87,25.26c-2.97,0-5.39-2.41-5.39-5.39s2.42-5.39,5.39-5.39,5.39,2.42,5.39,5.39-2.41,5.39-5.39,5.39ZM25.62,15.2c-.59,0-1.07-.48-1.07-1.08s.48-1.08,1.07-1.08,1.08.49,1.08,1.08-.48,1.08-1.08,1.08ZM19.87,16.28c-1.98,0-3.59,1.61-3.59,3.59s1.61,3.59,3.59,3.59,3.6-1.61,3.6-3.59-1.62-3.59-3.6-3.59Z"/></g></svg>