<?xml version="1.0" encoding="UTF-8"?><svg id="Capa_2" xmlns="http://www.w3.org/2000/svg" viewBox="0 0 108.42 22.86"><defs><style>.cls-1{fill:#484b47;}</style></defs><g id="Texto"><path class="cls-1" d="M7.01,19.3c-5.15,0-7.01-2.46-7.01-6.34,0-5.62,2.88-7.71,7.01-7.71s7.01,2.21,7.01,7.71c0,3.76-1.87,6.34-7.01,6.34ZM7.06,6.72c-1.22,0-1.92.82-1.92,5.7,0,3.85.62,5,1.92,5s1.82-.97,1.82-5c0-4.97-.67-5.7-1.82-5.7Z"/><path class="cls-1" d="M16.66,12.24c0-1.49-.03-2.86-.1-4-.05-1.02-.1-1.22-.47-1.22-.22,0-.35.02-.45.02-.57,0-.67-.4-.67-.77,0-.4.1-.77.67-.77.75,0,1.54.07,2.46.07.57,0,1.07-.07,1.67-.07s.72.4.72.9c0,1.14-.35,2.04-.35,3.23,0,.47.15.65.35.65.32,0,.32-.12.57-1.17.6-2.46,1.72-3.85,3.36-3.85,1.19,0,2.06.6,2.06,2.61,0,1.69-.42,3.13-1.89,3.13-.82,0-1.39-.17-1.67-1.09-.12-.37-.15-.6-.45-.6-.6,0-1.29,1.64-1.29,5.62,0,2.29.22,2.61,1.09,2.61.8,0,1.09-.1,1.24-.1.47,0,.8.22.8.8,0,.42-.32.85-.8.85-.77,0-3.33-.07-4.65-.07-1.14,0-2.21.02-3.16.05-.47,0-.67-.4-.67-.8s.2-.77.67-.77c.05,0,.32.05.37.05.37,0,.45-.8.47-1.47.07-1.32.1-2.61.1-3.83Z"/><path class="cls-1" d="M30.31,5.65c.9,0,1.72-.15,2.59-.15.42,0,.55.22.55.7,0,.5-.17,4.2-.17,6.29,0,.65,0,2.36.02,3.46.03,1.24.1,1.59.45,1.59.25,0,.45-.05.65-.05.52,0,.72.37.72.77,0,.45-.2.8-.72.8-.67,0-2.61-.1-3.96-.1-1.02,0-1.89.1-2.81.1-.42,0-.67-.22-.67-.8,0-.52.25-.77.67-.77.12,0,.3.05.5.05.27,0,.3-.45.32-1,.07-1.77.15-3.73.15-5.67,0-.9-.03-1.87-.08-2.66-.05-.94-.22-1.14-.67-1.14-.2,0-.35.02-.42.02-.47,0-.6-.42-.6-.82s.12-.77.6-.77c.92,0,1.79.15,2.88.15ZM34.77,1.57c0,1.94-1.77,2.41-5.32,2.41-1.72,0-2.19-.32-2.19-.97,0-.5.25-.77.75-.77.3,0,.6.32,1.24.32,1.44,0,2.16-2.56,3.83-2.56,1.07,0,1.69.65,1.69,1.57Z"/><path class="cls-1" d="M44.17,21.76c0-.35.25-.62.67-.62.67,0,1.34.52,2.06.52.5,0,.7-.27.7-.52,0-.52-.7-.92-1.94-.92-2.14,0-4.45,1.54-6.99,1.54-2.26,0-3.28-1.07-3.28-3.51,0-2.26,1.22-3.53,3.13-3.53h.55c.35,0,.52-.22.52-.45,0-.25-.2-.5-.55-.55-1.62-.25-2.74-1.44-2.74-3.83,0-3.26,2.31-4.63,6.07-4.63,1.27,0,2.51.2,3.18.2.45,0,.55-.17.55-.42,0-.22-.17-.35-.65-.45-1.09-.2-1.87-.67-1.87-1.82,0-.97.9-1.64,2.71-1.64s3.16,1.19,3.16,2.89c0,1.17-.6,2.06-1.64,2.06-.3,0-.67-.07-.75-.07-.37,0-.47.15-.47.37s.17.4.57.55c.82.3,1.99,1.12,1.99,3.38,0,3.31-1.69,4.85-6.32,4.85-3.21,0-4.1.57-4.1,1.54,0,.45.25.85.97.85,1.64,0,4.68-1.37,6.79-1.37,2.34,0,3.51,1.19,3.51,3.08,0,2.39-.92,3.58-3.43,3.58-1.72,0-2.41-.45-2.41-1.09ZM40.88,9.4c0,2.16.12,4.2,1.99,4.2,1.39,0,1.84-.6,1.84-3.48,0-2.64-.6-3.43-1.92-3.43-1.14,0-1.92.25-1.92,2.71Z"/><path class="cls-1" d="M57.79,19.42c-3.58,0-6.79-1.52-6.79-6.84s2.93-7.46,6.94-7.46c4.3,0,5.6,2.06,5.6,4.35s-.99,3.58-6.04,3.58c-.92,0-1.59.17-1.59.92,0,1.19,1.02,1.96,3.21,1.96,1.94,0,3.33-.55,3.33-2.04,0-.5.32-.7.6-.7.32,0,.6.2.6.7,0,3.95-1.54,5.52-5.84,5.52ZM55.63,10.15c0,.4.05.75.1.95.12.5.52.65,1,.65.87,0,2.86-.4,2.86-2.98,0-1.07-.37-2.01-1.67-2.01-1.67,0-2.29,1.04-2.29,3.41Z"/><path class="cls-1" d="M71.74,17.53c.07,0,.45-.02.55-.02.45,0,.7.37.7.77,0,.37-.25.77-.7.77-.9-.02-2.26-.05-3.58-.05-1.22,0-2.36.05-3.28.05-.42,0-.62-.4-.62-.77,0-.4.2-.77.62-.77.07,0,.45.02.52.02.32,0,.37-.52.4-.97.03-2.04.05-3.66.05-5.15,0-1.14,0-2.24-.05-3.38-.05-.82-.12-.97-.55-.97-.12,0-.27.02-.42.02-.42,0-.65-.32-.65-.75s.25-.85.77-.85c.37,0,1.24.07,1.96.07.65,0,1.24-.07,1.92-.07.75,0,.92.25.92,1.04,0,.7-.17,1.42-.17,2.29,0,.3.17.42.42.42.2,0,.32-.15.37-.42.42-2.36,1.94-3.58,4.45-3.58,3.28,0,4.13,1.74,4.13,4.95,0,1.69-.3,4.63-.3,5.99,0,.9.3,1.39.94,1.39.08,0,.3-.02.37-.02.4,0,.6.37.6.8,0,.32-.2.7-.6.7-.72-.02-1.84-.1-2.76-.1-.65,0-1.32.07-2.04.1-.9,0-1.17-.65-1.17-1.72,0-2.24.17-5.42.17-7.21,0-.87-.35-1.72-1.32-1.72-1.22,0-1.92.82-2.11,3.18-.12,1.42-.15,2.64-.15,3.88v1.12c0,.67.27.95.6.95Z"/><path class="cls-1" d="M88.75,19.42c-3.58,0-6.79-1.52-6.79-6.84s2.93-7.46,6.94-7.46c4.3,0,5.6,2.06,5.6,4.35s-.99,3.58-6.04,3.58c-.92,0-1.59.17-1.59.92,0,1.19,1.02,1.96,3.21,1.96,1.94,0,3.33-.55,3.33-2.04,0-.5.32-.7.6-.7.32,0,.6.2.6.7,0,3.95-1.54,5.52-5.84,5.52ZM86.59,10.15c0,.4.05.75.1.95.12.5.52.65,1,.65.87,0,2.86-.4,2.86-2.98,0-1.07-.37-2.01-1.67-2.01-1.67,0-2.29,1.04-2.29,3.41Z"/><path class="cls-1" d="M104.25,16.37c0-1.32-1.09-1.72-4-2.64-2.34-.75-3.96-1.72-3.96-4.3,0-2.34,1.57-4.3,5.84-4.3,3.86,0,5.84,1.22,5.84,3.08,0,1.14-.77,1.82-2.24,1.82s-2.51-.42-2.51-1.39c0-.45.22-.75.6-.94.22-.12.35-.25.35-.42,0-.42-.37-.7-1.77-.7-1.72,0-2.41.55-2.41,1.49,0,.87.57,1.69,4.08,2.56,3.53.87,4.35,2.51,4.35,4.53,0,2.79-2.14,4.28-6.24,4.28-4.95,0-6.34-1.52-6.34-3.28,0-1.19.84-1.89,2.46-1.89,1.42,0,2.41.6,2.41,1.44,0,.52-.15.82-.45,1-.3.17-.4.27-.4.45,0,.37.52.62,1.89.62,1.62,0,2.49-.4,2.49-1.39Z"/></g></svg>